<?xml version="1.0" encoding="UTF-8"?>
<!DOCTYPE svg PUBLIC "-//W3C//DTD SVG 1.1//EN" "http://www.w3.org/Graphics/SVG/1.1/DTD/svg11.dtd">
<!-- Creator: CorelDRAW X7 -->
<svg xmlns="http://www.w3.org/2000/svg" xml:space="preserve" width="1.08683in" height="1.08683in" version="1.1" style="shape-rendering:geometricPrecision; text-rendering:geometricPrecision; image-rendering:optimizeQuality; fill-rule:evenodd; clip-rule:evenodd"
viewBox="0 0 67 67"
 xmlns:xlink="http://www.w3.org/1999/xlink">
 <defs>
  <style type="text/css">
   <![CDATA[
    .fil0 {fill:#FEFEFE}
    .fil4 {fill:#B22D30}
    .fil2 {fill:black}
    .fil3 {fill:#BD1C1F}
    .fil1 {fill:#B22D30;fill-rule:nonzero}
   ]]>
  </style>
 </defs>
 <g id="Layer_x0020_1">
  <metadata id="CorelCorpID_0Corel-Layer"/>
  <g id="_315360400">
   <circle class="fil0" cx="34" cy="34" r="34"/>
   <g>
    <path class="fil1" d="M65 34l-1 0 0 0 -1 -2 0 -1 0 -2 0 -1 0 -2 -1 -1 0 -1 -1 -2 0 -1 -1 -1 -1 -2 -1 -1 0 -1 -1 -1 -1 -1 -1 -1 -1 -1 -1 -1 -1 -1 -2 -1 -1 -1 -1 0 -1 -1 -2 -1 -1 0 -1 -1 -2 0 -1 0 -2 -1 -1 0 -2 0 -1 0 0 -2 1 1 2 0 2 0 1 0 2 0 1 1 1 0 2 1 1 1 2 0 1 1 1 1 1 1 2 1 1 1 1 1 1 1 1 1 1 1 1 1 0 2 1 1 1 1 1 2 0 1 1 1 0 2 0 1 1 2 0 2 0 1 0 2 0 0zm-31 31l0 -1 0 0 1 -1 2 0 1 0 2 0 1 0 2 -1 1 0 1 -1 2 0 1 -1 1 -1 1 -1 2 0 1 -1 1 -1 1 -1 1 -1 1 -1 1 -1 0 -2 1 -1 1 -1 1 -1 0 -2 1 -1 0 -1 1 -2 0 -1 0 -2 0 -1 0 -2 1 -1 1 0 0 1 0 2 0 2 -1 1 0 2 0 1 -1 1 0 2 -1 1 -1 2 -1 1 0 1 -1 1 -1 2 -1 1 -1 1 -1 1 -1 1 -2 1 -1 1 -1 0 -1 1 -2 1 -1 1 -2 0 -1 1 -1 0 -2 0 -1 1 -2 0 -2 0 -1 0 0 0zm-32 -31l2 0 0 0 0 1 0 2 0 1 1 2 0 1 0 2 1 1 0 1 1 2 1 1 0 1 1 1 1 2 1 1 1 1 1 1 1 1 1 1 1 1 1 0 1 1 2 1 1 1 1 0 2 1 1 0 1 1 2 0 1 0 2 0 1 0 2 1 0 1 -2 0 -1 0 -2 0 -2 -1 -1 0 -2 0 -1 -1 -1 0 -2 -1 -1 -1 -1 -1 -2 0 -1 -1 -1 -1 -1 -1 -1 -1 -1 -1 -1 -1 -1 -2 -1 -1 -1 -1 -1 -1 0 -2 -1 -1 -1 -2 0 -1 -1 -1 0 -2 0 -1 0 -2 0 -2 -1 -1 0 0zm32 -32l0 2 0 0 -2 0 -1 0 -2 0 -1 1 -2 0 -1 0 -1 1 -2 0 -1 1 -1 1 -2 0 -1 1 -1 1 -1 1 -1 1 -1 1 -1 1 -1 1 -1 1 -1 1 -1 1 0 2 -1 1 -1 1 0 2 -1 1 0 1 0 2 -1 1 0 2 0 1 0 2 -2 0 1 -2 0 -1 0 -2 0 -2 0 -1 1 -2 0 -1 1 -1 1 -2 0 -1 1 -1 1 -2 1 -1 1 -1 1 -1 1 -1 1 -1 1 -1 1 -1 1 -1 2 -1 1 -1 1 0 2 -1 1 -1 1 0 2 -1 1 0 2 0 2 0 1 0 2 -1 0 0z"/>
   </g>
   <path class="fil2" d="M28 33c-3,2 -4,8 -2,11 2,4 5,5 9,6 4,0 8,-1 11,-3 4,-3 5,-7 3,-11 -3,-8 -14,-10 -16,-14 0,-2 1,-4 3,-5 2,-1 6,-1 8,2 0,0 1,2 1,2 1,0 1,-5 1,-6 -2,0 -4,0 -6,0 -2,-1 -4,-1 -6,0 -3,1 -5,3 -6,7 -1,3 1,6 4,8 2,2 5,3 8,5 7,5 3,13 -5,13 -3,-1 -6,-2 -8,-5 -1,-2 -1,-4 -1,-6 1,-3 2,-3 2,-4z"/>
   <path class="fil3" d="M22 46l0 -1c-1,0 -2,0 -3,-1 0,-1 1,-2 1,-3 1,-1 1,-3 2,-4l2 0c1,0 1,-2 1,-2l-2 0c0,-1 3,-8 4,-10 1,-1 -1,-2 1,-5 0,-1 0,-2 1,-3 0,0 1,-1 0,-2 -3,-2 -6,-3 -10,-2 -1,0 -2,1 -2,1 -1,1 1,0 2,0 1,0 3,1 4,3 1,0 3,3 3,4 0,0 -2,4 -2,5l-7 14c-1,2 -1,3 -2,4 -1,1 -2,1 -3,1 -1,1 3,1 3,1 0,0 6,0 7,0z"/>
   <path class="fil2" d="M31 35c0,0 -3,0 -3,0l-1 2 5 0c1,3 3,6 4,9 1,1 1,1 2,1 1,-1 2,-1 2,-1 1,-1 1,-1 2,-2 0,-1 -1,-2 -1,-2 0,-2 -1,-3 -2,-5 0,-1 0,-1 -1,-2 0,0 -1,-1 -2,-1 -1,-1 -2,-2 -4,-3 0,0 -3,-2 -3,-3l2 7z"/>
   <path class="fil4" d="M40 51c0,1 4,3 5,3 3,1 6,1 8,0 1,0 3,-1 2,-1 0,0 -2,1 -5,0 -3,-2 -3,-3 -5,-4 -1,0 -2,1 -4,1 0,0 -1,0 -1,1z"/>
  </g>
 </g>
</svg>
